<svg xmlns="http://www.w3.org/2000/svg" viewBox="0 0 569 400"><defs><style>.cls-1{font-size:48px;font-family:Montserrat-SemiBold, Montserrat;font-weight:600;}.cls-1,.cls-11,.cls-13,.cls-3{fill:#2c3141;}.cls-2{fill:#f66;}.cls-4{fill:#fd2233;}.cls-5{fill:#8b96b0;}.cls-10,.cls-6,.cls-8{fill:#fff;}.cls-7{fill:#a9b4ca;}.cls-8{opacity:0.5;}.cls-10,.cls-9{opacity:0.6;}.cls-11,.cls-13{font-size:22.97px;font-family:Montserrat-Regular, Montserrat;}.cls-11{letter-spacing:-0.02em;}.cls-12{letter-spacing:0em;}.cls-14{letter-spacing:0.03em;}.cls-15{letter-spacing:-0.02em;}.cls-16{letter-spacing:-0.01em;}.cls-17{letter-spacing:0em;}</style></defs><title>Artboard 3</title><g id="Layer_1" data-name="Layer 1"><text class="cls-1" transform="translate(56.21 98.47) rotate(0.14)">8:30 AM</text><text class="cls-1" transform="translate(336.81 99.16) rotate(0.14)">9:30 AM</text><circle class="cls-2" cx="100.29" cy="299.99" r="30.97" transform="matrix(0.17, -0.99, 0.99, 0.17, -212.31, 348.33)"/><rect class="cls-3" x="68.46" y="318.88" width="63.55" height="4.79" transform="translate(-221.29 420.71) rotate(-89.86)"/><rect class="cls-3" x="93.85" y="309.04" width="1.71" height="13.97" transform="translate(-195.34 158.81) rotate(-44.86)"/><rect class="cls-3" x="98.82" y="308.26" width="13.97" height="1.71" transform="translate(-187.23 164.63) rotate(-44.86)"/><rect class="cls-3" x="93.88" y="296.01" width="1.71" height="13.97" transform="translate(-186.14 155.04) rotate(-44.86)"/><rect class="cls-3" x="98.85" y="295.23" width="13.97" height="1.71" transform="translate(-178.03 160.86) rotate(-44.86)"/><polygon class="cls-4" points="533.65 370.39 533.65 370.39 34.66 369.15 34.66 369.15 34.69 356.87 34.69 356.87 533.68 358.11 533.68 358.11 533.65 370.39"/><path class="cls-2" d="M546.58,360.79a1.59,1.59,0,0,1-1.73,1.39L23.5,360.89a1.59,1.59,0,0,1-1.72-1.41l0-5.29a1.58,1.58,0,0,1,1.72-1.4l521.35,1.29a1.6,1.6,0,0,1,1.72,1.41Z"/><polygon class="cls-3" points="51.82 352.93 51.82 352.93 47.48 352.92 47.48 352.92 47.61 301.22 47.61 301.22 51.95 301.23 51.95 301.23 51.82 352.93"/><polygon class="cls-2" points="49.85 272.04 60.53 303.47 71.22 334.9 49.7 334.85 28.18 334.79 39.01 303.42 49.85 272.04"/><polygon class="cls-4" points="49.7 334.85 71.22 334.9 60.53 303.47 49.85 272.04 49.7 334.85"/><polygon class="cls-3" points="241.89 353.4 241.89 353.4 238.14 353.39 238.14 353.39 238.3 287.81 238.3 287.81 242.05 287.82 242.05 287.82 241.89 353.4"/><polygon class="cls-2" points="240.25 257.71 249.45 291.84 258.66 325.98 240.08 325.93 221.5 325.88 230.87 291.8 240.25 257.71"/><polygon class="cls-4" points="240.08 325.93 258.66 325.98 249.45 291.84 240.25 257.71 240.08 325.93"/><path class="cls-5" d="M397.55,353.79l-28.29-57.14L334.75,227a3.44,3.44,0,0,0-6.31,0l-34.85,69.52-28.58,57Z"/><path class="cls-6" d="M318.43,269.64c9.2-2.62,16.09-.09,27,5.95,3.07,1.7,7.78,1,13-.9L334.75,227a3.44,3.44,0,0,0-6.31,0l-21.07,42C312.28,269.88,316.29,270.25,318.43,269.64Z"/><path class="cls-7" d="M483.23,354l-32.92-66.49-40.16-81.1a4,4,0,0,0-7.34,0L362.26,287.3,329,353.62Z"/><path class="cls-6" d="M391.16,256.08c10.71-3,18.72-.11,31.41,6.93,3.57,2,9.05,1.15,15.08-1.05l-27.5-55.55a4,4,0,0,0-7.34,0l-24.52,48.92C384,256.37,388.68,256.79,391.16,256.08Z"/><circle class="cls-8" cx="268.81" cy="201.05" r="35.7" transform="translate(-63.86 156.18) rotate(-29.11)"/><circle class="cls-8" cx="268.81" cy="201.05" r="28.26" transform="translate(-66.64 213.56) rotate(-38.93)"/><circle class="cls-6" cx="268.81" cy="201.05" r="21.35" transform="translate(-32.62 53.32) rotate(-10.68)"/><polygon class="cls-3" points="488.67 354.02 488.67 354.02 485 354.01 485 354.01 485.11 310.33 485.11 310.33 488.78 310.34 488.78 310.34 488.67 354.02"/><polygon class="cls-2" points="487.01 285.68 496.03 312.23 505.06 338.78 486.88 338.74 468.7 338.69 477.85 312.19 487.01 285.68"/><polygon class="cls-4" points="486.88 338.74 505.06 338.78 496.03 312.23 487.01 285.68 486.88 338.74"/><polygon class="cls-3" points="527.89 354.11 527.89 354.11 524.22 354.11 524.22 354.11 524.33 310.43 524.33 310.43 528 310.44 528 310.44 527.89 354.11"/><polygon class="cls-2" points="526.23 285.78 535.25 312.33 544.27 338.88 526.09 338.83 507.91 338.79 517.07 312.29 526.23 285.78"/><polygon class="cls-4" points="526.09 338.83 544.27 338.88 535.25 312.33 526.23 285.78 526.09 338.83"/><circle class="cls-2" cx="439.32" cy="309.07" r="26.17" transform="translate(62.02 691.39) rotate(-80.51)"/><rect class="cls-3" x="412.43" y="325.03" width="53.68" height="4.05" transform="translate(111.13 765.51) rotate(-89.86)"/><rect class="cls-3" x="433.88" y="316.72" width="1.44" height="11.8" transform="translate(-101.03 400.47) rotate(-44.86)"/><rect class="cls-3" x="438.08" y="316.06" width="11.8" height="1.44" transform="translate(-94.18 405.39) rotate(-44.86)"/><rect class="cls-3" x="433.91" y="305.71" width="1.44" height="11.8" transform="translate(-93.26 397.29) rotate(-44.86)"/><rect class="cls-3" x="438.11" y="305.05" width="11.8" height="1.44" transform="translate(-86.41 402.2) rotate(-44.86)"/><g class="cls-9"><path class="cls-6" d="M348.46,289.1a3.6,3.6,0,0,0,3.59,3.6l27.78.07a3.6,3.6,0,0,0,3.6-3.58h0a3.6,3.6,0,0,0-3.59-3.61l-27.77-.06a3.59,3.59,0,0,0-3.61,3.58Z"/><path class="cls-6" d="M337.3,284a3.6,3.6,0,0,0,3.59,3.6l27.78.07a3.6,3.6,0,0,0,3.6-3.59h0a3.6,3.6,0,0,0-3.59-3.6l-27.77-.07A3.6,3.6,0,0,0,337.3,284Z"/></g><rect class="cls-6" x="94.63" y="218.53" width="10.22" height="27.19" rx="4.68" transform="translate(-132.63 331.29) rotate(-89.86)"/><path class="cls-6" d="M126.13,239.37a3.93,3.93,0,0,1-3.94,3.92l-14.45,0a3.94,3.94,0,0,1-3.92-3.94h0a3.93,3.93,0,0,1,3.94-3.92l14.45,0a3.93,3.93,0,0,1,3.92,3.94Z"/><path class="cls-6" d="M340,202.58l39.4.1a4.29,4.29,0,0,0,0-8.58l-5.89,0a2.92,2.92,0,0,1,0-5.84h1.36a3.28,3.28,0,1,0,0-6.56l-25.54-.06a3.28,3.28,0,0,0,0,6.55h1.3a2.92,2.92,0,0,1,0,5.84L340,194a4.29,4.29,0,1,0,0,8.58Z"/><path class="cls-6" d="M503.49,210.4l-33.09-.08a3.61,3.61,0,1,0,0,7.21h4.95a2.45,2.45,0,0,1,0,4.9h-1.15a2.76,2.76,0,1,0,0,5.51l21.45.05a2.76,2.76,0,0,0,0-5.51h-1.09a2.45,2.45,0,0,1,0-4.9l8.94,0a3.61,3.61,0,1,0,0-7.21Z"/><path class="cls-10" d="M454.25,262.48l-27.62-.07a3,3,0,0,0,0,6h4.13a2.05,2.05,0,0,1,0,4.1h-1a2.3,2.3,0,0,0,0,4.6l17.9,0a2.3,2.3,0,0,0,0-4.59h-.91a2.05,2.05,0,0,1,0-4.1l7.45,0a3,3,0,1,0,0-6Z"/><path class="cls-6" d="M145.36,184.26l-27.62-.07a3,3,0,0,0,0,6h4.13a2,2,0,1,1,0,4.09h-1a2.3,2.3,0,0,0,0,4.59l17.89,0a2.3,2.3,0,1,0,0-4.59h-.91a2,2,0,0,1,0-4.09h7.45a3,3,0,1,0,0-6Z"/><path class="cls-6" d="M182.1,212.76l17.94,0a3.84,3.84,0,1,1,0,7.67l-17.95-.05a3.83,3.83,0,1,1,0-7.66Z"/><path class="cls-6" d="M171,212.73h1.9a3.83,3.83,0,1,1,0,7.66H171a3.84,3.84,0,0,1,0-7.67Z"/><path class="cls-6" d="M501.57,254.23l17.95.05a3.83,3.83,0,1,1,0,7.66l-17.95,0a3.84,3.84,0,0,1,0-7.67Z"/><path class="cls-6" d="M490.46,254.21h1.91a3.83,3.83,0,1,1,0,7.66h-1.91a3.83,3.83,0,0,1,0-7.66Z"/><rect class="cls-3" x="137.99" y="306.42" width="89.34" height="4.33" transform="translate(-126.38 490.48) rotate(-89.86)"/><circle class="cls-2" cx="182.77" cy="263.69" r="15.57"/><circle class="cls-2" cx="194.98" cy="279.29" r="15.57" transform="translate(-112.3 426.26) rotate(-80.64)"/><circle class="cls-2" cx="170.48" cy="279.23" r="15.57" transform="translate(-132.93 401.61) rotate(-80.56)"/><path class="cls-10" d="M175.67,270.85l-26.11-.06a2.85,2.85,0,0,1,0-5.69h3.9a1.94,1.94,0,0,0,0-3.87h-.9a2.17,2.17,0,1,1,0-4.34l16.91,0a2.17,2.17,0,1,1,0,4.34h-.86a1.94,1.94,0,0,0,0,3.87l7,0a2.84,2.84,0,0,1,0,5.68Z"/><text class="cls-11" transform="translate(56.32 55.51) rotate(0.14)">C<tspan class="cls-12" x="15.98" y="0">olombia</tspan></text><text class="cls-13" transform="translate(336.92 56.21) rotate(0.14)">US<tspan class="cls-14" x="32.31" y="0">A</tspan><tspan class="cls-15" x="49.47" y="0">/</tspan><tspan class="cls-16" x="56.7" y="0">C</tspan><tspan class="cls-12" x="73.03" y="0">an</tspan><tspan class="cls-17" x="102.13" y="0">a</tspan><tspan x="115.73" y="0">da</tspan></text></g></svg>