<svg xmlns="http://www.w3.org/2000/svg" viewBox="0 0 339 111"><defs><style>.cls-1{fill:#2c3141;}.cls-2{fill:#fff;}.cls-3{fill:#fd2233;}</style></defs><title>Artboard 4</title><g id="Layer_2" data-name="Layer 2"><rect class="cls-1" width="339" height="111"/></g><g id="Layer_1" data-name="Layer 1"><path class="cls-2" d="M158.24,46.06l-8.69,20.25h-4.89L136,46.06h4.93l6.29,15,6.49-15Z"/><path class="cls-2" d="M179.59,57.7H163.7a5.57,5.57,0,0,0,2.18,3.55,7.18,7.18,0,0,0,4.38,1.31,7.4,7.4,0,0,0,5.5-2.2l2.54,2.92a8.56,8.56,0,0,1-3.45,2.46,13.62,13.62,0,0,1-10.58-.49,9.68,9.68,0,0,1-3.93-3.7A10.47,10.47,0,0,1,159,56.18a10.58,10.58,0,0,1,1.35-5.33A9.46,9.46,0,0,1,164,47.16a10.88,10.88,0,0,1,5.39-1.33,10.67,10.67,0,0,1,5.29,1.31,9.27,9.27,0,0,1,3.64,3.68,11.16,11.16,0,0,1,1.31,5.48C179.67,56.63,179.64,57.09,179.59,57.7Zm-14-6.73a5.68,5.68,0,0,0-1.92,3.58h11.5A5.9,5.9,0,0,0,165.58,51Z"/><path class="cls-2" d="M201.86,48.07q2.31,2.24,2.31,6.63V66.31h-4.74v-11a5.71,5.71,0,0,0-1.25-4A4.64,4.64,0,0,0,194.61,50a5.47,5.47,0,0,0-4.13,1.58A6.28,6.28,0,0,0,189,56.07V66.31h-4.74V46.06h4.51v2.61a7.49,7.49,0,0,1,3-2.12,10.67,10.67,0,0,1,4-.72A8.49,8.49,0,0,1,201.86,48.07Z"/><path class="cls-2" d="M222.38,65.21a5.47,5.47,0,0,1-2,1,9.08,9.08,0,0,1-2.52.35,7.16,7.16,0,0,1-5.16-1.75,6.69,6.69,0,0,1-1.82-5.08V50h-3.34V46.21h3.34V41.58h4.74v4.63H221V50h-5.42v9.64a3.2,3.2,0,0,0,.72,2.25,2.69,2.69,0,0,0,2.08.78,4.2,4.2,0,0,0,2.66-.83Z"/><path class="cls-2" d="M245.89,46.06V66.31h-4.51V63.73a7.69,7.69,0,0,1-2.84,2.11,9.23,9.23,0,0,1-3.68.74,8.85,8.85,0,0,1-6.4-2.26c-1.55-1.5-2.33-3.74-2.33-6.7V46.06h4.74V57a5.84,5.84,0,0,0,1.24,4.08,4.49,4.49,0,0,0,3.5,1.34,5.29,5.29,0,0,0,4-1.57,6.32,6.32,0,0,0,1.5-4.53V46.06Z"/><path class="cls-2" d="M263.83,45.83v4.51a6.49,6.49,0,0,0-1.1-.11,5.75,5.75,0,0,0-4.32,1.61,6.42,6.42,0,0,0-1.55,4.65v9.82h-4.75V46.06h4.52V49Q258.67,45.83,263.83,45.83Z"/><path class="cls-2" d="M268.08,41.9a2.66,2.66,0,0,1-.87-2,2.69,2.69,0,0,1,.87-2,3,3,0,0,1,2.16-.81,3.16,3.16,0,0,1,2.17.78,2.51,2.51,0,0,1,.87,1.95,2.91,2.91,0,0,1-.85,2.11,3.25,3.25,0,0,1-4.35,0Zm-.23,4.16h4.75V66.31h-4.75Z"/><path class="cls-2" d="M291,65.21a5.39,5.39,0,0,1-2,1,9,9,0,0,1-2.52.35,7.16,7.16,0,0,1-5.16-1.75,6.73,6.73,0,0,1-1.82-5.08V50h-3.34V46.21h3.34V41.58h4.74v4.63h5.43V50H284.2v9.64a3.2,3.2,0,0,0,.72,2.25,2.71,2.71,0,0,0,2.09.78,4.17,4.17,0,0,0,2.65-.83Z"/><path class="cls-2" d="M294.59,65.68a3.17,3.17,0,1,1,5.31-2.25,3.12,3.12,0,0,1-5.31,2.25Z"/><path class="cls-3" d="M109,30V61.5a7.42,7.42,0,0,1-3.7,6.41L77.7,83.8a7.41,7.41,0,0,1-7.4,0L42.75,67.91a7.41,7.41,0,0,1-3.64-5.5V30.48a4.27,4.27,0,0,1,6.16-3.83l.37.22,12.06,6.86a5,5,0,0,1,2.07,5.65l0,.11c-.06.16-.13.33-.19.51a15.45,15.45,0,1,0,29,0c-.07-.19-.14-.36-.2-.51l0-.11c0-.12-.07-.23-.1-.35A5.58,5.58,0,0,1,88.11,38a5,5,0,0,1,2.29-4.21l0,0,.41-.23,12-6.82a4.34,4.34,0,0,1,1.9-.44,4.25,4.25,0,0,1,4.22,3.61Z"/></g></svg>