<svg xmlns="http://www.w3.org/2000/svg" viewBox="0 0 569 400"><defs><style>.cls-1{fill:#2c3141;}.cls-2{fill:#ca172d;}.cls-3{fill:#747f96;}.cls-4{fill:#99001a;}.cls-5{fill:#556177;}.cls-12,.cls-14,.cls-6{fill:#dfdfdf;}.cls-11,.cls-7,.cls-9{fill:#fff;}.cls-7{opacity:0.1;}.cls-11,.cls-8{opacity:0.4;}.cls-10{fill:#3d3d5a;}.cls-12{font-size:48px;font-family:Montserrat-SemiBold, Montserrat;font-weight:600;letter-spacing:-0.02em;}.cls-13{letter-spacing:0em;}.cls-14{font-size:22.97px;font-family:Montserrat-Regular, Montserrat;}.cls-15{letter-spacing:0em;}.cls-16{letter-spacing:-0.02em;}.cls-17{letter-spacing:-0.01em;}.cls-18{letter-spacing:-0.01em;}</style></defs><title>Artboard 3</title><g id="Layer_2" data-name="Layer 2"><rect class="cls-1" width="570" height="400"/></g><g id="Layer_1" data-name="Layer 1"><circle class="cls-2" cx="101.35" cy="300.45" r="30.97" transform="translate(-211.75 350.54) rotate(-80.45)"/><rect class="cls-3" x="98.96" y="289.96" width="4.79" height="63.55"/><rect class="cls-3" x="94.96" y="309.51" width="1.71" height="13.97" transform="translate(-195.74 160.45) rotate(-45)"/><rect class="cls-3" x="99.91" y="308.7" width="13.97" height="1.71" transform="translate(-187.58 166.26) rotate(-45)"/><rect class="cls-3" x="94.96" y="296.49" width="1.71" height="13.97" transform="translate(-186.52 156.63) rotate(-45)"/><rect class="cls-3" x="99.91" y="295.68" width="13.97" height="1.71" transform="translate(-178.37 162.44) rotate(-45)"/><polygon class="cls-4" points="534.89 369.77 534.89 369.77 35.91 369.77 35.91 369.77 35.91 357.49 35.91 357.49 534.89 357.49 534.89 357.49 534.89 369.77"/><path class="cls-2" d="M547.79,360.14a1.59,1.59,0,0,1-1.72,1.4H24.72a1.59,1.59,0,0,1-1.72-1.4v-5.3a1.58,1.58,0,0,1,1.72-1.4H546.07a1.58,1.58,0,0,1,1.72,1.4Z"/><polygon class="cls-3" points="53.02 353.51 53.02 353.51 48.68 353.51 48.68 353.51 48.68 301.81 48.68 301.81 53.02 301.81 53.02 301.81 53.02 353.51"/><polygon class="cls-2" points="50.85 272.63 61.61 304.03 72.37 335.43 50.85 335.43 29.33 335.43 40.09 304.03 50.85 272.63"/><polygon class="cls-4" points="50.85 335.43 72.37 335.43 61.61 304.03 50.85 272.63 50.85 335.43"/><polygon class="cls-3" points="243.09 353.51 243.09 353.51 239.34 353.51 239.34 353.51 239.34 287.93 239.34 287.93 243.09 287.93 243.09 287.93 243.09 353.51"/><polygon class="cls-2" points="241.21 257.82 250.5 291.93 259.79 326.04 241.21 326.04 222.63 326.04 231.92 291.93 241.21 257.82"/><polygon class="cls-4" points="241.21 326.04 259.79 326.04 250.5 291.93 241.21 257.82 241.21 326.04"/><path class="cls-5" d="M398.75,353.51l-28.43-57.07-34.68-69.61a3.44,3.44,0,0,0-6.31,0l-34.68,69.61-28.43,57.07Z"/><path class="cls-6" d="M319.42,269.55c9.2-2.64,16.09-.13,27,5.89,3.07,1.69,7.78,1,13-.94l-23.75-47.67a3.44,3.44,0,0,0-6.31,0l-21,42.09C313.27,269.82,317.29,270.17,319.42,269.55Z"/><path class="cls-3" d="M484.43,353.51,451.34,287.1,411,206.1a4,4,0,0,0-7.34,0l-40.36,81-33.08,66.41Z"/><path class="cls-6" d="M392.12,255.82c10.7-3.08,18.72-.16,31.43,6.85,3.57,2,9.05,1.13,15.08-1.09L411,206.1a4,4,0,0,0-7.34,0l-24.4,49C385,256.12,389.64,256.53,392.12,255.82Z"/><circle class="cls-7" cx="269.64" cy="201.09" r="35.7" transform="translate(-63.88 157.42) rotate(-29.25)"/><circle class="cls-7" cx="269.64" cy="201.09" r="32.08" transform="translate(-63.9 157.57) rotate(-29.28)"/><circle class="cls-7" cx="269.64" cy="201.09" r="27.49" transform="translate(-66.44 214.96) rotate(-39.08)"/><path class="cls-6" d="M278.34,179.38a20.18,20.18,0,1,1-31.92,23.84,23.32,23.32,0,1,0,31.92-23.84Z"/><polygon class="cls-3" points="489.88 353.51 489.88 353.51 486.21 353.51 486.21 353.51 486.21 309.84 486.21 309.84 489.88 309.84 489.88 309.84 489.88 353.51"/><polygon class="cls-2" points="488.04 285.18 497.13 311.71 506.22 338.24 488.04 338.24 469.86 338.24 478.95 311.71 488.04 285.18"/><polygon class="cls-4" points="488.04 338.24 506.22 338.24 497.13 311.71 488.04 285.18 488.04 338.24"/><polygon class="cls-3" points="529.09 353.51 529.09 353.51 525.42 353.51 525.42 353.51 525.42 309.84 525.42 309.84 529.09 309.84 529.09 309.84 529.09 353.51"/><polygon class="cls-2" points="527.26 285.18 536.35 311.71 545.44 338.24 527.26 338.24 509.08 338.24 518.17 311.71 527.26 285.18"/><polygon class="cls-4" points="527.26 338.24 545.44 338.24 536.35 311.71 527.26 285.18 527.26 338.24"/><circle class="cls-2" cx="440.41" cy="308.68" r="26.17" transform="translate(64.26 693.08) rotate(-80.65)"/><rect class="cls-5" x="438.38" y="299.83" width="4.05" height="53.68"/><rect class="cls-5" x="435" y="316.34" width="1.44" height="11.8" transform="translate(-100.24 402.49) rotate(-45)"/><rect class="cls-5" x="439.19" y="315.66" width="11.8" height="1.44" transform="translate(-93.35 407.39) rotate(-45)"/><rect class="cls-5" x="435" y="305.34" width="1.44" height="11.8" transform="translate(-92.46 399.26) rotate(-45)"/><rect class="cls-5" x="439.19" y="304.65" width="11.8" height="1.44" transform="translate(-85.57 404.17) rotate(-45)"/><g class="cls-8"><path class="cls-9" d="M349.51,288.94a3.59,3.59,0,0,0,3.59,3.59h27.78a3.59,3.59,0,0,0,3.59-3.59h0a3.59,3.59,0,0,0-3.59-3.59H353.1a3.59,3.59,0,0,0-3.59,3.59Z"/><path class="cls-9" d="M338.33,283.85a3.6,3.6,0,0,0,3.6,3.59H369.7a3.6,3.6,0,0,0,3.6-3.59h0a3.6,3.6,0,0,0-3.6-3.6H341.93a3.6,3.6,0,0,0-3.6,3.6Z"/></g><rect class="cls-10" x="87.05" y="227.48" width="27.19" height="10.22" rx="4.68"/><path class="cls-10" d="M127.05,239.77a3.93,3.93,0,0,1-3.93,3.93H108.67a3.93,3.93,0,0,1-3.93-3.93h0a3.93,3.93,0,0,1,3.93-3.93h14.45a3.93,3.93,0,0,1,3.93,3.93Z"/><path class="cls-10" d="M340.78,202.44h39.4a4.29,4.29,0,1,0,0-8.58h-5.89a2.92,2.92,0,0,1,0-5.84h1.36a3.28,3.28,0,1,0,0-6.55H350.11a3.28,3.28,0,0,0,0,6.55h1.3a2.92,2.92,0,0,1,0,5.84H340.78a4.29,4.29,0,1,0,0,8.58Z"/><path class="cls-10" d="M504.34,209.86h-33.1a3.61,3.61,0,0,0,0,7.21h4.95a2.45,2.45,0,0,1,0,4.9h-1.14a2.76,2.76,0,1,0,0,5.51H496.5a2.76,2.76,0,0,0,0-5.51h-1.09a2.45,2.45,0,0,1,0-4.9h8.93a3.61,3.61,0,0,0,0-7.21Z"/><path class="cls-11" d="M455.22,262.06H427.61a3,3,0,1,0,0,6h4.13a2,2,0,0,1,0,4.09h-1a2.3,2.3,0,1,0,0,4.6h17.9a2.3,2.3,0,1,0,0-4.6h-.91a2,2,0,1,1,0-4.09h7.45a3,3,0,1,0,0-6Z"/><path class="cls-10" d="M146.14,184.61H118.52a3,3,0,1,0,0,6h4.13a2,2,0,1,1,0,4.09h-1a2.3,2.3,0,0,0,0,4.6h17.9a2.3,2.3,0,1,0,0-4.6h-.91a2,2,0,0,1,0-4.09h7.46a3,3,0,0,0,0-6Z"/><path class="cls-10" d="M183,213h18a3.84,3.84,0,0,1,0,7.67H183a3.84,3.84,0,0,1,0-7.67Z"/><path class="cls-10" d="M171.84,213h1.91a3.84,3.84,0,0,1,0,7.67h-1.91a3.84,3.84,0,0,1,0-7.67Z"/><path class="cls-10" d="M502.53,253.7h17.94a3.83,3.83,0,1,1,0,7.66H502.53a3.83,3.83,0,1,1,0-7.66Z"/><path class="cls-10" d="M491.42,253.7h1.9a3.83,3.83,0,1,1,0,7.66h-1.9a3.83,3.83,0,1,1,0-7.66Z"/><rect class="cls-3" x="181.58" y="264.17" width="4.33" height="89.34"/><circle class="cls-2" cx="183.75" cy="263.94" r="15.57"/><circle class="cls-2" cx="196" cy="279.51" r="15.57" transform="translate(-111.3 428.21) rotate(-80.78)"/><circle class="cls-2" cx="171.5" cy="279.51" r="15.57" transform="translate(-132.05 403.6) rotate(-80.7)"/><path class="cls-11" d="M176.66,271.12h-26.1a2.84,2.84,0,1,1,0-5.68h3.9a1.94,1.94,0,1,0,0-3.87h-.9a2.17,2.17,0,1,1,0-4.34h16.92a2.17,2.17,0,1,1,0,4.34h-.86a1.94,1.94,0,1,0,0,3.87h7a2.84,2.84,0,1,1,0,5.68Z"/><text class="cls-12" transform="translate(195.47 99.03)">7<tspan class="cls-13" x="28.22" y="0">:00 pm</tspan></text><text class="cls-14" transform="translate(223.2 48.09)">I<tspan class="cls-15" x="6.94" y="0">n</tspan><tspan x="22.53" y="0">dia</tspan><tspan class="cls-16" x="57.83" y="0">/</tspan><tspan x="65.06" y="0">S</tspan><tspan class="cls-17" x="79.19" y="0">r</tspan><tspan x="88.21" y="0">i </tspan><tspan class="cls-15" x="100.41" y="0">L</tspan><tspan x="113.98" y="0">an</tspan><tspan class="cls-18" x="143.08" y="0">k</tspan><tspan x="156.65" y="0">a</tspan></text></g></svg>